<mxfile host="Electron" modified="2024-02-06T16:28:13.975Z" agent="Mozilla/5.0 (Macintosh; Intel Mac OS X 10_15_7) AppleWebKit/537.36 (KHTML, like Gecko) draw.io/22.1.2 Chrome/114.0.5735.289 Electron/25.9.4 Safari/537.36" etag="ihZX9cT6JAtkEDM4e_Cl" version="22.1.2" type="device">
  <diagram name="StrÃ¡nka-1" id="Q7augeW1ysP3k_pjyfom">
    <mxGraphModel dx="1420" dy="840" grid="1" gridSize="11" guides="1" tooltips="1" connect="1" arrows="1" fold="1" page="1" pageScale="1" pageWidth="180" pageHeight="333" math="0" shadow="0">
      <root>
        <mxCell id="0" />
        <mxCell id="1" parent="0" />
        <mxCell id="AFp-_R_-GhDzbqFiinib-34" value="" style="rounded=1;whiteSpace=wrap;html=1;align=left;movable=1;resizable=1;rotatable=1;deletable=1;editable=1;locked=0;connectable=1;" parent="1" vertex="1">
          <mxGeometry x="753.25" y="378.2" width="117.5" height="220" as="geometry" />
        </mxCell>
        <mxCell id="ADhO0i4H8DHNeuuw_Dwu-41" value="" style="rounded=1;whiteSpace=wrap;html=1;align=left;movable=1;resizable=1;rotatable=1;deletable=1;editable=1;locked=0;connectable=1;" parent="1" vertex="1">
          <mxGeometry x="172.5" y="340.92" width="117.5" height="176.02" as="geometry" />
        </mxCell>
        <mxCell id="ADhO0i4H8DHNeuuw_Dwu-30" value="" style="rounded=1;whiteSpace=wrap;html=1;align=left;movable=1;resizable=1;rotatable=1;deletable=1;editable=1;locked=0;connectable=1;" parent="1" vertex="1">
          <mxGeometry x="45" y="340.92" width="117.5" height="121.02" as="geometry" />
        </mxCell>
        <mxCell id="ADhO0i4H8DHNeuuw_Dwu-7" value="Gateway&lt;br&gt;/api/v" style="rounded=0;whiteSpace=wrap;html=1;labelPosition=center;verticalLabelPosition=middle;align=center;verticalAlign=middle;" parent="1" vertex="1">
          <mxGeometry x="38" y="48" width="286" height="60" as="geometry" />
        </mxCell>
        <mxCell id="ADhO0i4H8DHNeuuw_Dwu-13" value="" style="group;fillColor=#FFA069;movable=1;resizable=1;rotatable=1;deletable=1;editable=1;locked=0;connectable=1;" parent="1" vertex="1" connectable="0">
          <mxGeometry x="500" y="286.46999999999997" width="372" height="80" as="geometry" />
        </mxCell>
        <mxCell id="ADhO0i4H8DHNeuuw_Dwu-5" value="&amp;nbsp; &amp;nbsp; &amp;nbsp; &amp;nbsp; &amp;nbsp; &amp;nbsp; &amp;nbsp; &amp;nbsp; Blog" style="rounded=0;whiteSpace=wrap;html=1;movable=1;resizable=1;rotatable=1;deletable=1;editable=1;locked=0;connectable=1;align=left;" parent="ADhO0i4H8DHNeuuw_Dwu-13" vertex="1">
          <mxGeometry width="372.00000000000006" height="80" as="geometry" />
        </mxCell>
        <mxCell id="ADhO0i4H8DHNeuuw_Dwu-3" value="" style="sketch=0;html=1;aspect=fixed;strokeColor=none;shadow=0;fillColor=#3B8DF1;verticalAlign=top;labelPosition=center;verticalLabelPosition=bottom;shape=mxgraph.gcp2.gear;movable=1;resizable=1;rotatable=1;deletable=1;editable=1;locked=0;connectable=1;" parent="ADhO0i4H8DHNeuuw_Dwu-13" vertex="1">
          <mxGeometry x="16.90909090909091" y="24.999999999999993" width="29.214659685863875" height="29.214659685863875" as="geometry" />
        </mxCell>
        <mxCell id="AFp-_R_-GhDzbqFiinib-11" value="" style="shape=datastore;whiteSpace=wrap;html=1;fillColor=#61A5FF;movable=1;resizable=1;rotatable=1;deletable=1;editable=1;locked=0;connectable=1;" parent="ADhO0i4H8DHNeuuw_Dwu-13" vertex="1">
          <mxGeometry x="330" y="22" width="29.1" height="44" as="geometry" />
        </mxCell>
        <mxCell id="AFp-_R_-GhDzbqFiinib-12" value="PG/Prisma" style="text;html=1;align=center;verticalAlign=middle;resizable=1;points=[];autosize=1;strokeColor=none;fillColor=none;movable=1;rotatable=1;deletable=1;editable=1;locked=0;connectable=1;" parent="ADhO0i4H8DHNeuuw_Dwu-13" vertex="1">
          <mxGeometry x="242" y="27.5" width="88" height="33" as="geometry" />
        </mxCell>
        <mxCell id="ADhO0i4H8DHNeuuw_Dwu-15" value="/signup" style="rounded=1;whiteSpace=wrap;html=1;movable=1;resizable=1;rotatable=1;deletable=1;editable=1;locked=0;connectable=1;" parent="1" vertex="1">
          <mxGeometry x="65" y="370.92" width="80" height="30" as="geometry" />
        </mxCell>
        <mxCell id="ADhO0i4H8DHNeuuw_Dwu-16" value="/signin" style="rounded=1;whiteSpace=wrap;html=1;movable=1;resizable=1;rotatable=1;deletable=1;editable=1;locked=0;connectable=1;" parent="1" vertex="1">
          <mxGeometry x="65" y="410.40000000000003" width="80" height="30" as="geometry" />
        </mxCell>
        <mxCell id="ADhO0i4H8DHNeuuw_Dwu-17" value="/" style="rounded=1;whiteSpace=wrap;html=1;movable=1;resizable=1;rotatable=1;deletable=1;editable=1;locked=0;connectable=1;" parent="1" vertex="1">
          <mxGeometry x="191.5" y="405.68" width="80" height="30" as="geometry" />
        </mxCell>
        <mxCell id="ADhO0i4H8DHNeuuw_Dwu-20" value="" style="sketch=0;pointerEvents=1;shadow=0;dashed=0;html=1;strokeColor=#ae4132;labelPosition=center;verticalLabelPosition=bottom;verticalAlign=top;outlineConnect=0;align=center;shape=mxgraph.office.security.lock_protected;fillColor=#fad9d5;movable=1;resizable=1;rotatable=1;deletable=1;editable=1;locked=0;connectable=1;" parent="1" vertex="1">
          <mxGeometry x="271.5" y="414.68" width="10" height="12" as="geometry" />
        </mxCell>
        <mxCell id="ADhO0i4H8DHNeuuw_Dwu-21" value="/:id" style="rounded=1;whiteSpace=wrap;html=1;movable=1;resizable=1;rotatable=1;deletable=1;editable=1;locked=0;connectable=1;" parent="1" vertex="1">
          <mxGeometry x="191" y="370.92" width="80" height="30" as="geometry" />
        </mxCell>
        <mxCell id="ADhO0i4H8DHNeuuw_Dwu-24" value="module" style="shadow=0;dashed=0;html=1;strokeColor=none;fillColor=#4495D1;labelPosition=center;verticalLabelPosition=bottom;verticalAlign=top;align=center;outlineConnect=0;shape=mxgraph.veeam.2d.resource_pool;movable=1;resizable=1;rotatable=1;deletable=1;editable=1;locked=0;connectable=1;" parent="1" vertex="1">
          <mxGeometry x="86.64999999999995" y="526.9100000000001" width="30" height="26.8" as="geometry" />
        </mxCell>
        <mxCell id="ADhO0i4H8DHNeuuw_Dwu-26" value="micro &lt;br&gt;service" style="sketch=0;html=1;aspect=fixed;strokeColor=none;shadow=0;fillColor=#3B8DF1;verticalAlign=top;labelPosition=center;verticalLabelPosition=bottom;shape=mxgraph.gcp2.gear;movable=1;resizable=1;rotatable=1;deletable=1;editable=1;locked=0;connectable=1;" parent="1" vertex="1">
          <mxGeometry x="34.49999999999997" y="525.31" width="30" height="30" as="geometry" />
        </mxCell>
        <mxCell id="ADhO0i4H8DHNeuuw_Dwu-27" value="Auth" style="shadow=0;dashed=0;html=1;strokeColor=none;fillColor=#4495D1;labelPosition=right;verticalLabelPosition=middle;verticalAlign=middle;align=left;outlineConnect=0;shape=mxgraph.veeam.2d.resource_pool;horizontal=1;movable=1;resizable=1;rotatable=1;deletable=1;editable=1;locked=0;connectable=1;" parent="1" vertex="1">
          <mxGeometry x="52.5" y="347.8500000000001" width="15" height="13.07" as="geometry" />
        </mxCell>
        <mxCell id="ADhO0i4H8DHNeuuw_Dwu-32" value="controller" style="shadow=0;dashed=0;html=1;strokeColor=#fad7ac;fillColor=#fad7ac;labelPosition=center;verticalLabelPosition=bottom;verticalAlign=top;align=center;outlineConnect=0;shape=mxgraph.veeam.2d.resource_pool;movable=1;resizable=1;rotatable=1;deletable=1;editable=1;locked=0;connectable=1;" parent="1" vertex="1">
          <mxGeometry x="144.49999999999997" y="526.9100000000001" width="30" height="26.8" as="geometry" />
        </mxCell>
        <mxCell id="ADhO0i4H8DHNeuuw_Dwu-33" value="" style="shadow=0;dashed=0;html=1;strokeColor=#82b366;fillColor=#d5e8d4;labelPosition=center;verticalLabelPosition=bottom;verticalAlign=top;align=center;outlineConnect=0;shape=mxgraph.veeam.2d.resource_pool;gradientColor=#97d077;movable=1;resizable=1;rotatable=1;deletable=1;editable=1;locked=0;connectable=1;" parent="1" vertex="1">
          <mxGeometry x="55" y="383.74999999999994" width="10" height="8.71" as="geometry" />
        </mxCell>
        <mxCell id="ADhO0i4H8DHNeuuw_Dwu-36" value="" style="shadow=0;dashed=0;html=1;strokeColor=#82b366;fillColor=#d5e8d4;labelPosition=center;verticalLabelPosition=bottom;verticalAlign=top;align=center;outlineConnect=0;shape=mxgraph.veeam.2d.resource_pool;gradientColor=#97d077;movable=1;resizable=1;rotatable=1;deletable=1;editable=1;locked=0;connectable=1;" parent="1" vertex="1">
          <mxGeometry x="55" y="421.05" width="10" height="8.71" as="geometry" />
        </mxCell>
        <mxCell id="ADhO0i4H8DHNeuuw_Dwu-37" value="" style="shadow=0;dashed=0;html=1;strokeColor=#d6b656;fillColor=#fff2cc;labelPosition=center;verticalLabelPosition=bottom;verticalAlign=top;align=center;outlineConnect=0;shape=mxgraph.veeam.2d.resource_pool;gradientColor=#ffd966;movable=1;resizable=1;rotatable=1;deletable=1;editable=1;locked=0;connectable=1;" parent="1" vertex="1">
          <mxGeometry x="181" y="416.32" width="10" height="8.71" as="geometry" />
        </mxCell>
        <mxCell id="ADhO0i4H8DHNeuuw_Dwu-46" value="User" style="shadow=0;dashed=0;html=1;strokeColor=none;fillColor=#4495D1;labelPosition=right;verticalLabelPosition=middle;verticalAlign=middle;align=left;outlineConnect=0;shape=mxgraph.veeam.2d.resource_pool;horizontal=1;movable=1;resizable=1;rotatable=1;deletable=1;editable=1;locked=0;connectable=1;" parent="1" vertex="1">
          <mxGeometry x="180" y="347.8500000000001" width="15" height="13.07" as="geometry" />
        </mxCell>
        <mxCell id="ADhO0i4H8DHNeuuw_Dwu-53" value="" style="rounded=1;whiteSpace=wrap;html=1;align=left;movable=1;resizable=1;rotatable=1;deletable=1;editable=1;locked=0;connectable=1;" parent="1" vertex="1">
          <mxGeometry x="627.25" y="379.3400000000001" width="117.5" height="230.67" as="geometry" />
        </mxCell>
        <mxCell id="ADhO0i4H8DHNeuuw_Dwu-54" value="/" style="rounded=1;whiteSpace=wrap;html=1;movable=1;resizable=1;rotatable=1;deletable=1;editable=1;locked=0;connectable=1;" parent="1" vertex="1">
          <mxGeometry x="646.75" y="419.52000000000015" width="80" height="30" as="geometry" />
        </mxCell>
        <mxCell id="ADhO0i4H8DHNeuuw_Dwu-55" value="/:id" style="rounded=1;whiteSpace=wrap;html=1;movable=1;resizable=1;rotatable=1;deletable=1;editable=1;locked=0;connectable=1;" parent="1" vertex="1">
          <mxGeometry x="646.75" y="456.00000000000006" width="80" height="30" as="geometry" />
        </mxCell>
        <mxCell id="ADhO0i4H8DHNeuuw_Dwu-56" value="/:id" style="rounded=1;whiteSpace=wrap;html=1;movable=1;resizable=1;rotatable=1;deletable=1;editable=1;locked=0;connectable=1;" parent="1" vertex="1">
          <mxGeometry x="646.75" y="493.00000000000017" width="80" height="30" as="geometry" />
        </mxCell>
        <mxCell id="ADhO0i4H8DHNeuuw_Dwu-57" value="" style="sketch=0;pointerEvents=1;shadow=0;dashed=0;html=1;strokeColor=#ae4132;labelPosition=center;verticalLabelPosition=bottom;verticalAlign=top;outlineConnect=0;align=center;shape=mxgraph.office.security.lock_protected;fillColor=#fad9d5;movable=1;resizable=1;rotatable=1;deletable=1;editable=1;locked=0;connectable=1;" parent="1" vertex="1">
          <mxGeometry x="726.7500000000001" y="502.00000000000017" width="10" height="12" as="geometry" />
        </mxCell>
        <mxCell id="ADhO0i4H8DHNeuuw_Dwu-58" value="Post (actions)" style="shadow=0;dashed=0;html=1;strokeColor=none;fillColor=#4495D1;labelPosition=right;verticalLabelPosition=middle;verticalAlign=middle;align=left;outlineConnect=0;shape=mxgraph.veeam.2d.resource_pool;horizontal=1;movable=1;resizable=1;rotatable=1;deletable=1;editable=1;locked=0;connectable=1;" parent="1" vertex="1">
          <mxGeometry x="634.25" y="396.4500000000002" width="15" height="13.07" as="geometry" />
        </mxCell>
        <mxCell id="ADhO0i4H8DHNeuuw_Dwu-59" value="" style="shadow=0;dashed=0;html=1;strokeColor=#82b366;fillColor=#d5e8d4;labelPosition=center;verticalLabelPosition=bottom;verticalAlign=top;align=center;outlineConnect=0;shape=mxgraph.veeam.2d.resource_pool;gradientColor=#97d077;movable=1;resizable=1;rotatable=1;deletable=1;editable=1;locked=0;connectable=1;" parent="1" vertex="1">
          <mxGeometry x="636.75" y="432.3500000000001" width="10" height="8.71" as="geometry" />
        </mxCell>
        <mxCell id="ADhO0i4H8DHNeuuw_Dwu-60" value="" style="shadow=0;dashed=0;html=1;strokeColor=#d79b00;fillColor=#ffcd28;labelPosition=center;verticalLabelPosition=bottom;verticalAlign=top;align=center;outlineConnect=0;shape=mxgraph.veeam.2d.resource_pool;gradientColor=#ffa500;movable=1;resizable=1;rotatable=1;deletable=1;editable=1;locked=0;connectable=1;" parent="1" vertex="1">
          <mxGeometry x="636.75" y="466.65000000000003" width="10" height="8.71" as="geometry" />
        </mxCell>
        <mxCell id="ADhO0i4H8DHNeuuw_Dwu-61" value="" style="shadow=0;dashed=0;html=1;strokeColor=#b85450;fillColor=#f8cecc;labelPosition=center;verticalLabelPosition=bottom;verticalAlign=top;align=center;outlineConnect=0;shape=mxgraph.veeam.2d.resource_pool;gradientColor=#ea6b66;movable=1;resizable=1;rotatable=1;deletable=1;editable=1;locked=0;connectable=1;" parent="1" vertex="1">
          <mxGeometry x="636.25" y="503.64000000000004" width="10" height="8.71" as="geometry" />
        </mxCell>
        <mxCell id="ADhO0i4H8DHNeuuw_Dwu-62" value="" style="sketch=0;pointerEvents=1;shadow=0;dashed=0;html=1;strokeColor=#ae4132;labelPosition=center;verticalLabelPosition=bottom;verticalAlign=top;outlineConnect=0;align=center;shape=mxgraph.office.security.lock_protected;fillColor=#fad9d5;movable=1;resizable=1;rotatable=1;deletable=1;editable=1;locked=0;connectable=1;" parent="1" vertex="1">
          <mxGeometry x="726.7500000000001" y="428.7200000000002" width="10" height="12" as="geometry" />
        </mxCell>
        <mxCell id="ADhO0i4H8DHNeuuw_Dwu-63" value="" style="sketch=0;pointerEvents=1;shadow=0;dashed=0;html=1;strokeColor=#ae4132;labelPosition=center;verticalLabelPosition=bottom;verticalAlign=top;outlineConnect=0;align=center;shape=mxgraph.office.security.lock_protected;fillColor=#fad9d5;movable=1;resizable=1;rotatable=1;deletable=1;editable=1;locked=0;connectable=1;" parent="1" vertex="1">
          <mxGeometry x="726.7500000000001" y="465.01000000000016" width="10" height="12" as="geometry" />
        </mxCell>
        <mxCell id="ADhO0i4H8DHNeuuw_Dwu-64" value="" style="shadow=0;dashed=0;html=1;strokeColor=#6c8ebf;fillColor=#dae8fc;labelPosition=center;verticalLabelPosition=bottom;verticalAlign=top;align=center;outlineConnect=0;shape=mxgraph.veeam.2d.resource_pool;gradientColor=#7ea6e0;movable=1;resizable=1;rotatable=1;deletable=1;editable=1;locked=0;connectable=1;" parent="1" vertex="1">
          <mxGeometry x="181" y="381.57" width="10" height="8.71" as="geometry" />
        </mxCell>
        <mxCell id="ADhO0i4H8DHNeuuw_Dwu-65" value="/repost/:id" style="rounded=1;whiteSpace=wrap;html=1;movable=1;resizable=1;rotatable=1;deletable=1;editable=1;locked=0;connectable=1;" parent="1" vertex="1">
          <mxGeometry x="647.75" y="565.5600000000002" width="80" height="30" as="geometry" />
        </mxCell>
        <mxCell id="ADhO0i4H8DHNeuuw_Dwu-66" value="" style="sketch=0;pointerEvents=1;shadow=0;dashed=0;html=1;strokeColor=#ae4132;labelPosition=center;verticalLabelPosition=bottom;verticalAlign=top;outlineConnect=0;align=center;shape=mxgraph.office.security.lock_protected;fillColor=#fad9d5;movable=1;resizable=1;rotatable=1;deletable=1;editable=1;locked=0;connectable=1;" parent="1" vertex="1">
          <mxGeometry x="727.7500000000001" y="574.5600000000002" width="10" height="12" as="geometry" />
        </mxCell>
        <mxCell id="ADhO0i4H8DHNeuuw_Dwu-67" value="" style="shadow=0;dashed=0;html=1;strokeColor=#82b366;fillColor=#d5e8d4;labelPosition=center;verticalLabelPosition=bottom;verticalAlign=top;align=center;outlineConnect=0;shape=mxgraph.veeam.2d.resource_pool;gradientColor=#97d077;movable=1;resizable=1;rotatable=1;deletable=1;editable=1;locked=0;connectable=1;" parent="1" vertex="1">
          <mxGeometry x="637.25" y="576.2" width="10" height="8.71" as="geometry" />
        </mxCell>
        <mxCell id="ADhO0i4H8DHNeuuw_Dwu-68" value="" style="rounded=1;whiteSpace=wrap;html=1;align=left;movable=1;resizable=1;rotatable=1;deletable=1;editable=1;locked=0;connectable=1;" parent="1" vertex="1">
          <mxGeometry x="632" y="81.94" width="240" height="193.9" as="geometry" />
        </mxCell>
        <mxCell id="ADhO0i4H8DHNeuuw_Dwu-69" value="/one/:id" style="rounded=1;whiteSpace=wrap;html=1;movable=1;resizable=1;rotatable=1;deletable=1;editable=1;locked=0;connectable=1;" parent="1" vertex="1">
          <mxGeometry x="658.75" y="132.10000000000008" width="80" height="30" as="geometry" />
        </mxCell>
        <mxCell id="ADhO0i4H8DHNeuuw_Dwu-71" value="Posts (Info)" style="shadow=0;dashed=0;html=1;strokeColor=none;fillColor=#4495D1;labelPosition=right;verticalLabelPosition=middle;verticalAlign=middle;align=left;outlineConnect=0;shape=mxgraph.veeam.2d.resource_pool;horizontal=1;movable=1;resizable=1;rotatable=1;deletable=1;editable=1;locked=0;connectable=1;" parent="1" vertex="1">
          <mxGeometry x="642.75" y="102.15000000000015" width="15" height="13.07" as="geometry" />
        </mxCell>
        <mxCell id="ADhO0i4H8DHNeuuw_Dwu-72" value="" style="shadow=0;dashed=0;html=1;strokeColor=#6c8ebf;fillColor=#dae8fc;labelPosition=center;verticalLabelPosition=bottom;verticalAlign=top;align=center;outlineConnect=0;shape=mxgraph.veeam.2d.resource_pool;gradientColor=#7ea6e0;movable=1;resizable=1;rotatable=1;deletable=1;editable=1;locked=0;connectable=1;" parent="1" vertex="1">
          <mxGeometry x="648.75" y="142.75000000000006" width="10" height="8.71" as="geometry" />
        </mxCell>
        <mxCell id="ADhO0i4H8DHNeuuw_Dwu-73" value="/:offset&lt;br&gt;/:limit/:sort" style="rounded=1;whiteSpace=wrap;html=1;movable=1;resizable=1;rotatable=1;deletable=1;editable=1;locked=0;connectable=1;" parent="1" vertex="1">
          <mxGeometry x="657.75" y="166.5700000000001" width="80" height="30" as="geometry" />
        </mxCell>
        <mxCell id="ADhO0i4H8DHNeuuw_Dwu-75" value="" style="shadow=0;dashed=0;html=1;strokeColor=#6c8ebf;fillColor=#dae8fc;labelPosition=center;verticalLabelPosition=bottom;verticalAlign=top;align=center;outlineConnect=0;shape=mxgraph.veeam.2d.resource_pool;gradientColor=#7ea6e0;movable=1;resizable=1;rotatable=1;deletable=1;editable=1;locked=0;connectable=1;" parent="1" vertex="1">
          <mxGeometry x="647.75" y="177.22000000000008" width="10" height="8.71" as="geometry" />
        </mxCell>
        <mxCell id="ADhO0i4H8DHNeuuw_Dwu-76" value="/user/:user-id" style="rounded=1;whiteSpace=wrap;html=1;movable=1;resizable=1;rotatable=1;deletable=1;editable=1;locked=0;connectable=1;" parent="1" vertex="1">
          <mxGeometry x="659" y="235.93" width="80" height="30" as="geometry" />
        </mxCell>
        <mxCell id="ADhO0i4H8DHNeuuw_Dwu-78" value="" style="shadow=0;dashed=0;html=1;strokeColor=#6c8ebf;fillColor=#dae8fc;labelPosition=center;verticalLabelPosition=bottom;verticalAlign=top;align=center;outlineConnect=0;shape=mxgraph.veeam.2d.resource_pool;gradientColor=#7ea6e0;movable=1;resizable=1;rotatable=1;deletable=1;editable=1;locked=0;connectable=1;" parent="1" vertex="1">
          <mxGeometry x="649" y="246.5800000000001" width="10" height="8.71" as="geometry" />
        </mxCell>
        <mxCell id="ADhO0i4H8DHNeuuw_Dwu-80" value="/type/:type" style="rounded=1;whiteSpace=wrap;html=1;movable=1;resizable=1;rotatable=1;deletable=1;editable=1;locked=0;connectable=1;" parent="1" vertex="1">
          <mxGeometry x="773.25" y="130.57999999999998" width="80" height="30" as="geometry" />
        </mxCell>
        <mxCell id="ADhO0i4H8DHNeuuw_Dwu-81" value="" style="shadow=0;dashed=0;html=1;strokeColor=#6c8ebf;fillColor=#dae8fc;labelPosition=center;verticalLabelPosition=bottom;verticalAlign=top;align=center;outlineConnect=0;shape=mxgraph.veeam.2d.resource_pool;gradientColor=#7ea6e0;movable=1;resizable=1;rotatable=1;deletable=1;editable=1;locked=0;connectable=1;" parent="1" vertex="1">
          <mxGeometry x="763.25" y="141.22999999999996" width="10" height="8.71" as="geometry" />
        </mxCell>
        <mxCell id="ADhO0i4H8DHNeuuw_Dwu-83" value="/user/drafts" style="rounded=1;whiteSpace=wrap;html=1;movable=1;resizable=1;rotatable=1;deletable=1;editable=1;locked=0;connectable=1;" parent="1" vertex="1">
          <mxGeometry x="658.75" y="201.47000000000008" width="80" height="30" as="geometry" />
        </mxCell>
        <mxCell id="ADhO0i4H8DHNeuuw_Dwu-84" value="" style="shadow=0;dashed=0;html=1;strokeColor=#6c8ebf;fillColor=#dae8fc;labelPosition=center;verticalLabelPosition=bottom;verticalAlign=top;align=center;outlineConnect=0;shape=mxgraph.veeam.2d.resource_pool;gradientColor=#7ea6e0;movable=1;resizable=1;rotatable=1;deletable=1;editable=1;locked=0;connectable=1;" parent="1" vertex="1">
          <mxGeometry x="648.75" y="212.12000000000006" width="10" height="8.71" as="geometry" />
        </mxCell>
        <mxCell id="ADhO0i4H8DHNeuuw_Dwu-85" value="" style="sketch=0;pointerEvents=1;shadow=0;dashed=0;html=1;strokeColor=#ae4132;labelPosition=center;verticalLabelPosition=bottom;verticalAlign=top;outlineConnect=0;align=center;shape=mxgraph.office.security.lock_protected;fillColor=#fad9d5;movable=1;resizable=1;rotatable=1;deletable=1;editable=1;locked=0;connectable=1;" parent="1" vertex="1">
          <mxGeometry x="737.5" y="208.8300000000001" width="10" height="12" as="geometry" />
        </mxCell>
        <mxCell id="ADhO0i4H8DHNeuuw_Dwu-86" value="/tag/:tag" style="rounded=1;whiteSpace=wrap;html=1;movable=1;resizable=1;rotatable=1;deletable=1;editable=1;locked=0;connectable=1;" parent="1" vertex="1">
          <mxGeometry x="772.63" y="164.93" width="80" height="30" as="geometry" />
        </mxCell>
        <mxCell id="ADhO0i4H8DHNeuuw_Dwu-87" value="" style="shadow=0;dashed=0;html=1;strokeColor=#6c8ebf;fillColor=#dae8fc;labelPosition=center;verticalLabelPosition=bottom;verticalAlign=top;align=center;outlineConnect=0;shape=mxgraph.veeam.2d.resource_pool;gradientColor=#7ea6e0;movable=1;resizable=1;rotatable=1;deletable=1;editable=1;locked=0;connectable=1;" parent="1" vertex="1">
          <mxGeometry x="762.63" y="175.57999999999998" width="10" height="8.71" as="geometry" />
        </mxCell>
        <mxCell id="ADhO0i4H8DHNeuuw_Dwu-98" value="get" style="ellipse;whiteSpace=wrap;html=1;aspect=fixed;fillColor=#dae8fc;strokeColor=#6c8ebf;verticalAlign=middle;labelPosition=center;verticalLabelPosition=bottom;align=center;gradientColor=#7ea6e0;movable=1;resizable=1;rotatable=1;deletable=1;editable=1;locked=0;connectable=1;" parent="1" vertex="1">
          <mxGeometry x="26.99999999999997" y="601.9100000000001" width="20.95" height="20.95" as="geometry" />
        </mxCell>
        <mxCell id="ADhO0i4H8DHNeuuw_Dwu-99" value="post" style="ellipse;whiteSpace=wrap;html=1;aspect=fixed;fillColor=#d5e8d4;strokeColor=#82b366;verticalAlign=middle;labelPosition=center;verticalLabelPosition=bottom;align=center;gradientColor=#97d077;movable=1;resizable=1;rotatable=1;deletable=1;editable=1;locked=0;connectable=1;" parent="1" vertex="1">
          <mxGeometry x="58.49999999999997" y="601.9100000000001" width="19.4" height="19.4" as="geometry" />
        </mxCell>
        <mxCell id="ADhO0i4H8DHNeuuw_Dwu-101" value="put" style="ellipse;whiteSpace=wrap;html=1;aspect=fixed;fillColor=#ffcd28;strokeColor=#d79b00;verticalAlign=middle;labelPosition=center;verticalLabelPosition=bottom;align=center;gradientColor=#ffa500;movable=1;resizable=1;rotatable=1;deletable=1;editable=1;locked=0;connectable=1;" parent="1" vertex="1">
          <mxGeometry x="87.01999999999998" y="602.46" width="19.4" height="19.4" as="geometry" />
        </mxCell>
        <mxCell id="ADhO0i4H8DHNeuuw_Dwu-102" value="delete" style="ellipse;whiteSpace=wrap;html=1;aspect=fixed;fillColor=#f8cecc;strokeColor=#b85450;verticalAlign=middle;labelPosition=center;verticalLabelPosition=bottom;align=center;gradientColor=#ea6b66;movable=1;resizable=1;rotatable=1;deletable=1;editable=1;locked=0;connectable=1;" parent="1" vertex="1">
          <mxGeometry x="151.16999999999996" y="602.6100000000001" width="19.4" height="19.4" as="geometry" />
        </mxCell>
        <mxCell id="ADhO0i4H8DHNeuuw_Dwu-103" value="patch" style="ellipse;whiteSpace=wrap;html=1;aspect=fixed;fillColor=#fff2cc;strokeColor=#d6b656;verticalAlign=middle;labelPosition=center;verticalLabelPosition=bottom;align=center;gradientColor=#ffd966;movable=1;resizable=1;rotatable=1;deletable=1;editable=1;locked=0;connectable=1;" parent="1" vertex="1">
          <mxGeometry x="118.26999999999998" y="601.9100000000001" width="19.4" height="19.4" as="geometry" />
        </mxCell>
        <mxCell id="ADhO0i4H8DHNeuuw_Dwu-110" value="" style="rounded=1;whiteSpace=wrap;html=1;align=left;movable=1;resizable=1;rotatable=1;deletable=1;editable=1;locked=0;connectable=1;" parent="1" vertex="1">
          <mxGeometry x="500" y="134.16000000000003" width="117.5" height="143.04" as="geometry" />
        </mxCell>
        <mxCell id="ADhO0i4H8DHNeuuw_Dwu-113" value="Feed" style="shadow=0;dashed=0;html=1;strokeColor=none;fillColor=#4495D1;labelPosition=right;verticalLabelPosition=middle;verticalAlign=middle;align=left;outlineConnect=0;shape=mxgraph.veeam.2d.resource_pool;horizontal=1;movable=1;resizable=1;rotatable=1;deletable=1;editable=1;locked=0;connectable=1;" parent="1" vertex="1">
          <mxGeometry x="507.5" y="141.0900000000001" width="15" height="13.07" as="geometry" />
        </mxCell>
        <mxCell id="ADhO0i4H8DHNeuuw_Dwu-126" value="/:user-id" style="rounded=1;whiteSpace=wrap;html=1;movable=1;resizable=1;rotatable=1;deletable=1;editable=1;locked=0;connectable=1;" parent="1" vertex="1">
          <mxGeometry x="517.5" y="199.18" width="80" height="30" as="geometry" />
        </mxCell>
        <mxCell id="ADhO0i4H8DHNeuuw_Dwu-127" value="" style="sketch=0;pointerEvents=1;shadow=0;dashed=0;html=1;strokeColor=#ae4132;labelPosition=center;verticalLabelPosition=bottom;verticalAlign=top;outlineConnect=0;align=center;shape=mxgraph.office.security.lock_protected;fillColor=#fad9d5;movable=1;resizable=1;rotatable=1;deletable=1;editable=1;locked=0;connectable=1;" parent="1" vertex="1">
          <mxGeometry x="597.5" y="208.18" width="10" height="12" as="geometry" />
        </mxCell>
        <mxCell id="ADhO0i4H8DHNeuuw_Dwu-128" value="" style="shadow=0;dashed=0;html=1;strokeColor=#82b366;fillColor=#d5e8d4;labelPosition=center;verticalLabelPosition=bottom;verticalAlign=top;align=center;outlineConnect=0;shape=mxgraph.veeam.2d.resource_pool;gradientColor=#97d077;movable=1;resizable=1;rotatable=1;deletable=1;editable=1;locked=0;connectable=1;" parent="1" vertex="1">
          <mxGeometry x="507.5" y="209.8300000000001" width="10" height="8.71" as="geometry" />
        </mxCell>
        <mxCell id="ADhO0i4H8DHNeuuw_Dwu-129" value="/" style="rounded=1;whiteSpace=wrap;html=1;movable=1;resizable=1;rotatable=1;deletable=1;editable=1;locked=0;connectable=1;" parent="1" vertex="1">
          <mxGeometry x="517.5" y="162.18" width="80" height="30" as="geometry" />
        </mxCell>
        <mxCell id="ADhO0i4H8DHNeuuw_Dwu-130" value="" style="shadow=0;dashed=0;html=1;strokeColor=#6c8ebf;fillColor=#dae8fc;labelPosition=center;verticalLabelPosition=bottom;verticalAlign=top;align=center;outlineConnect=0;shape=mxgraph.veeam.2d.resource_pool;gradientColor=#7ea6e0;movable=1;resizable=1;rotatable=1;deletable=1;editable=1;locked=0;connectable=1;" parent="1" vertex="1">
          <mxGeometry x="507.5" y="172.8300000000001" width="10" height="8.71" as="geometry" />
        </mxCell>
        <mxCell id="ADhO0i4H8DHNeuuw_Dwu-131" value="" style="sketch=0;pointerEvents=1;shadow=0;dashed=0;html=1;strokeColor=#ae4132;labelPosition=center;verticalLabelPosition=bottom;verticalAlign=top;outlineConnect=0;align=center;shape=mxgraph.office.security.lock_protected;fillColor=#fad9d5;movable=1;resizable=1;rotatable=1;deletable=1;editable=1;locked=0;connectable=1;" parent="1" vertex="1">
          <mxGeometry x="596.25" y="169.54000000000013" width="10" height="12" as="geometry" />
        </mxCell>
        <mxCell id="ADhO0i4H8DHNeuuw_Dwu-132" value="/:user-id" style="rounded=1;whiteSpace=wrap;html=1;movable=1;resizable=1;rotatable=1;deletable=1;editable=1;locked=0;connectable=1;" parent="1" vertex="1">
          <mxGeometry x="517.5" y="233.18" width="80" height="30" as="geometry" />
        </mxCell>
        <mxCell id="ADhO0i4H8DHNeuuw_Dwu-133" value="" style="sketch=0;pointerEvents=1;shadow=0;dashed=0;html=1;strokeColor=#ae4132;labelPosition=center;verticalLabelPosition=bottom;verticalAlign=top;outlineConnect=0;align=center;shape=mxgraph.office.security.lock_protected;fillColor=#fad9d5;movable=1;resizable=1;rotatable=1;deletable=1;editable=1;locked=0;connectable=1;" parent="1" vertex="1">
          <mxGeometry x="597.5" y="242.18" width="10" height="12" as="geometry" />
        </mxCell>
        <mxCell id="ADhO0i4H8DHNeuuw_Dwu-134" value="" style="shadow=0;dashed=0;html=1;strokeColor=#b85450;fillColor=#f8cecc;labelPosition=center;verticalLabelPosition=bottom;verticalAlign=top;align=center;outlineConnect=0;shape=mxgraph.veeam.2d.resource_pool;gradientColor=#ea6b66;movable=1;resizable=1;rotatable=1;deletable=1;editable=1;locked=0;connectable=1;" parent="1" vertex="1">
          <mxGeometry x="507.5" y="243.8300000000001" width="10" height="8.71" as="geometry" />
        </mxCell>
        <mxCell id="ADhO0i4H8DHNeuuw_Dwu-136" value="/:post-id" style="rounded=1;whiteSpace=wrap;html=1;movable=1;resizable=1;rotatable=1;deletable=1;editable=1;locked=0;connectable=1;" parent="1" vertex="1">
          <mxGeometry x="775.25" y="408.94" width="80" height="30" as="geometry" />
        </mxCell>
        <mxCell id="ADhO0i4H8DHNeuuw_Dwu-137" value="" style="sketch=0;pointerEvents=1;shadow=0;dashed=0;html=1;strokeColor=#ae4132;labelPosition=center;verticalLabelPosition=bottom;verticalAlign=top;outlineConnect=0;align=center;shape=mxgraph.office.security.lock_protected;fillColor=#fad9d5;movable=1;resizable=1;rotatable=1;deletable=1;editable=1;locked=0;connectable=1;" parent="1" vertex="1">
          <mxGeometry x="855.25" y="417.94" width="10" height="12" as="geometry" />
        </mxCell>
        <mxCell id="ADhO0i4H8DHNeuuw_Dwu-138" value="" style="shadow=0;dashed=0;html=1;strokeColor=#82b366;fillColor=#d5e8d4;labelPosition=center;verticalLabelPosition=bottom;verticalAlign=top;align=center;outlineConnect=0;shape=mxgraph.veeam.2d.resource_pool;gradientColor=#97d077;movable=1;resizable=1;rotatable=1;deletable=1;editable=1;locked=0;connectable=1;" parent="1" vertex="1">
          <mxGeometry x="764.75" y="419.57999999999987" width="10" height="8.71" as="geometry" />
        </mxCell>
        <mxCell id="ADhO0i4H8DHNeuuw_Dwu-139" value="/:like-id" style="rounded=1;whiteSpace=wrap;html=1;movable=1;resizable=1;rotatable=1;deletable=1;editable=1;locked=0;connectable=1;" parent="1" vertex="1">
          <mxGeometry x="775" y="445.2899999999999" width="80" height="30" as="geometry" />
        </mxCell>
        <mxCell id="ADhO0i4H8DHNeuuw_Dwu-140" value="" style="sketch=0;pointerEvents=1;shadow=0;dashed=0;html=1;strokeColor=#ae4132;labelPosition=center;verticalLabelPosition=bottom;verticalAlign=top;outlineConnect=0;align=center;shape=mxgraph.office.security.lock_protected;fillColor=#fad9d5;movable=1;resizable=1;rotatable=1;deletable=1;editable=1;locked=0;connectable=1;" parent="1" vertex="1">
          <mxGeometry x="855" y="454.2899999999999" width="10" height="12" as="geometry" />
        </mxCell>
        <mxCell id="ADhO0i4H8DHNeuuw_Dwu-141" value="" style="shadow=0;dashed=0;html=1;strokeColor=#b85450;fillColor=#f8cecc;labelPosition=center;verticalLabelPosition=bottom;verticalAlign=top;align=center;outlineConnect=0;shape=mxgraph.veeam.2d.resource_pool;gradientColor=#ea6b66;movable=1;resizable=1;rotatable=1;deletable=1;editable=1;locked=0;connectable=1;" parent="1" vertex="1">
          <mxGeometry x="764.5" y="455.93" width="10" height="8.71" as="geometry" />
        </mxCell>
        <mxCell id="ADhO0i4H8DHNeuuw_Dwu-142" value="/:post-id" style="rounded=1;whiteSpace=wrap;html=1;movable=1;resizable=1;rotatable=1;deletable=1;editable=1;locked=0;connectable=1;" parent="1" vertex="1">
          <mxGeometry x="774" y="524.94" width="80" height="30" as="geometry" />
        </mxCell>
        <mxCell id="ADhO0i4H8DHNeuuw_Dwu-143" value="" style="sketch=0;pointerEvents=1;shadow=0;dashed=0;html=1;strokeColor=#ae4132;labelPosition=center;verticalLabelPosition=bottom;verticalAlign=top;outlineConnect=0;align=center;shape=mxgraph.office.security.lock_protected;fillColor=#fad9d5;movable=1;resizable=1;rotatable=1;deletable=1;editable=1;locked=0;connectable=1;" parent="1" vertex="1">
          <mxGeometry x="854" y="533.94" width="10" height="12" as="geometry" />
        </mxCell>
        <mxCell id="ADhO0i4H8DHNeuuw_Dwu-144" value="" style="shadow=0;dashed=0;html=1;strokeColor=#82b366;fillColor=#d5e8d4;labelPosition=center;verticalLabelPosition=bottom;verticalAlign=top;align=center;outlineConnect=0;shape=mxgraph.veeam.2d.resource_pool;gradientColor=#97d077;movable=1;resizable=1;rotatable=1;deletable=1;editable=1;locked=0;connectable=1;" parent="1" vertex="1">
          <mxGeometry x="763.5" y="535.5799999999999" width="10" height="8.71" as="geometry" />
        </mxCell>
        <mxCell id="ADhO0i4H8DHNeuuw_Dwu-145" value="/:like-id" style="rounded=1;whiteSpace=wrap;html=1;movable=1;resizable=1;rotatable=1;deletable=1;editable=1;locked=0;connectable=1;" parent="1" vertex="1">
          <mxGeometry x="773.5" y="561.94" width="80" height="30" as="geometry" />
        </mxCell>
        <mxCell id="ADhO0i4H8DHNeuuw_Dwu-146" value="" style="sketch=0;pointerEvents=1;shadow=0;dashed=0;html=1;strokeColor=#ae4132;labelPosition=center;verticalLabelPosition=bottom;verticalAlign=top;outlineConnect=0;align=center;shape=mxgraph.office.security.lock_protected;fillColor=#fad9d5;movable=1;resizable=1;rotatable=1;deletable=1;editable=1;locked=0;connectable=1;" parent="1" vertex="1">
          <mxGeometry x="853.5" y="570.94" width="10" height="12" as="geometry" />
        </mxCell>
        <mxCell id="ADhO0i4H8DHNeuuw_Dwu-147" value="" style="shadow=0;dashed=0;html=1;strokeColor=#b85450;fillColor=#f8cecc;labelPosition=center;verticalLabelPosition=bottom;verticalAlign=top;align=center;outlineConnect=0;shape=mxgraph.veeam.2d.resource_pool;gradientColor=#ea6b66;movable=1;resizable=1;rotatable=1;deletable=1;editable=1;locked=0;connectable=1;" parent="1" vertex="1">
          <mxGeometry x="763" y="572.5799999999999" width="10" height="8.71" as="geometry" />
        </mxCell>
        <mxCell id="ADhO0i4H8DHNeuuw_Dwu-148" value="/comments/:id&lt;br&gt;/:offset/:limit" style="rounded=1;whiteSpace=wrap;html=1;movable=1;resizable=1;rotatable=1;deletable=1;editable=1;locked=0;connectable=1;" parent="1" vertex="1">
          <mxGeometry x="773.25" y="199.93" width="80" height="30" as="geometry" />
        </mxCell>
        <mxCell id="ADhO0i4H8DHNeuuw_Dwu-149" value="" style="shadow=0;dashed=0;html=1;strokeColor=#6c8ebf;fillColor=#dae8fc;labelPosition=center;verticalLabelPosition=bottom;verticalAlign=top;align=center;outlineConnect=0;shape=mxgraph.veeam.2d.resource_pool;gradientColor=#7ea6e0;movable=1;resizable=1;rotatable=1;deletable=1;editable=1;locked=0;connectable=1;" parent="1" vertex="1">
          <mxGeometry x="763.25" y="210.57999999999998" width="10" height="8.71" as="geometry" />
        </mxCell>
        <mxCell id="ADhO0i4H8DHNeuuw_Dwu-150" value="/search&lt;br&gt;/:keywords" style="rounded=1;whiteSpace=wrap;html=1;movable=1;resizable=1;rotatable=1;deletable=1;editable=1;locked=0;connectable=1;" parent="1" vertex="1">
          <mxGeometry x="773.25" y="235.93" width="80" height="30" as="geometry" />
        </mxCell>
        <mxCell id="ADhO0i4H8DHNeuuw_Dwu-151" value="" style="shadow=0;dashed=0;html=1;strokeColor=#6c8ebf;fillColor=#dae8fc;labelPosition=center;verticalLabelPosition=bottom;verticalAlign=top;align=center;outlineConnect=0;shape=mxgraph.veeam.2d.resource_pool;gradientColor=#7ea6e0;movable=1;resizable=1;rotatable=1;deletable=1;editable=1;locked=0;connectable=1;" parent="1" vertex="1">
          <mxGeometry x="763.25" y="246.57999999999998" width="10" height="8.71" as="geometry" />
        </mxCell>
        <mxCell id="ADhO0i4H8DHNeuuw_Dwu-152" value="" style="rounded=1;whiteSpace=wrap;html=1;align=left;" parent="1" vertex="1">
          <mxGeometry x="420" y="489.05" width="117.5" height="33" as="geometry" />
        </mxCell>
        <mxCell id="ADhO0i4H8DHNeuuw_Dwu-157" value="Queue" style="shadow=0;dashed=0;html=1;strokeColor=none;fillColor=#4495D1;labelPosition=right;verticalLabelPosition=middle;verticalAlign=middle;align=left;outlineConnect=0;shape=mxgraph.veeam.2d.resource_pool;horizontal=1;" parent="1" vertex="1">
          <mxGeometry x="427.5" y="498.9800000000001" width="15" height="13.07" as="geometry" />
        </mxCell>
        <mxCell id="ADhO0i4H8DHNeuuw_Dwu-170" value="" style="rounded=1;whiteSpace=wrap;html=1;align=left;" parent="1" vertex="1">
          <mxGeometry x="38" y="110.68" width="117.5" height="72.72" as="geometry" />
        </mxCell>
        <mxCell id="ADhO0i4H8DHNeuuw_Dwu-175" value="JWT" style="shadow=0;dashed=0;html=1;strokeColor=none;fillColor=#4495D1;labelPosition=right;verticalLabelPosition=middle;verticalAlign=middle;align=left;outlineConnect=0;shape=mxgraph.veeam.2d.resource_pool;horizontal=1;" parent="1" vertex="1">
          <mxGeometry x="46.50000000000001" y="122.61000000000007" width="15" height="13.07" as="geometry" />
        </mxCell>
        <mxCell id="ADhO0i4H8DHNeuuw_Dwu-23" value="" style="image;sketch=0;aspect=fixed;html=1;points=[];align=center;fontSize=12;image=img/lib/mscae/Key.svg;" parent="1" vertex="1">
          <mxGeometry x="129.74" y="117.60999999999996" width="10.26" height="16.55" as="geometry" />
        </mxCell>
        <mxCell id="ADhO0i4H8DHNeuuw_Dwu-180" value="" style="sketch=0;html=1;aspect=fixed;strokeColor=none;shadow=0;fillColor=#3B8DF1;verticalAlign=top;labelPosition=center;verticalLabelPosition=bottom;shape=mxgraph.gcp2.gear" parent="1" vertex="1">
          <mxGeometry x="48.99909090909091" y="62.21999999999997" width="29.214659685863875" height="29.214659685863875" as="geometry" />
        </mxCell>
        <mxCell id="ADhO0i4H8DHNeuuw_Dwu-181" value="" style="rounded=1;whiteSpace=wrap;html=1;align=left;" parent="1" vertex="1">
          <mxGeometry x="206.5" y="111.21999999999997" width="117.5" height="28.72" as="geometry" />
        </mxCell>
        <mxCell id="ADhO0i4H8DHNeuuw_Dwu-184" value="Proxy" style="shadow=0;dashed=0;html=1;strokeColor=none;fillColor=#4495D1;labelPosition=right;verticalLabelPosition=middle;verticalAlign=middle;align=left;outlineConnect=0;shape=mxgraph.veeam.2d.resource_pool;horizontal=1;" parent="1" vertex="1">
          <mxGeometry x="214" y="118.14999999999998" width="15" height="14.79" as="geometry" />
        </mxCell>
        <mxCell id="AFp-_R_-GhDzbqFiinib-1" value="/republish/:id" style="rounded=1;whiteSpace=wrap;html=1;movable=1;resizable=1;rotatable=1;deletable=1;editable=1;locked=0;connectable=1;" parent="1" vertex="1">
          <mxGeometry x="646.75" y="530.0000000000002" width="80" height="30" as="geometry" />
        </mxCell>
        <mxCell id="AFp-_R_-GhDzbqFiinib-2" value="" style="shadow=0;dashed=0;html=1;strokeColor=#d79b00;fillColor=#ffcd28;labelPosition=center;verticalLabelPosition=bottom;verticalAlign=top;align=center;outlineConnect=0;shape=mxgraph.veeam.2d.resource_pool;gradientColor=#ffa500;movable=1;resizable=1;rotatable=1;deletable=1;editable=1;locked=0;connectable=1;" parent="1" vertex="1">
          <mxGeometry x="636.75" y="540.6500000000001" width="10" height="8.71" as="geometry" />
        </mxCell>
        <mxCell id="AFp-_R_-GhDzbqFiinib-3" value="" style="sketch=0;pointerEvents=1;shadow=0;dashed=0;html=1;strokeColor=#ae4132;labelPosition=center;verticalLabelPosition=bottom;verticalAlign=top;outlineConnect=0;align=center;shape=mxgraph.office.security.lock_protected;fillColor=#fad9d5;movable=1;resizable=1;rotatable=1;deletable=1;editable=1;locked=0;connectable=1;" parent="1" vertex="1">
          <mxGeometry x="726.7500000000001" y="539.0100000000002" width="10" height="12" as="geometry" />
        </mxCell>
        <mxCell id="AFp-_R_-GhDzbqFiinib-9" value="Like (actions)" style="shadow=0;dashed=0;html=1;strokeColor=none;fillColor=#4495D1;labelPosition=right;verticalLabelPosition=middle;verticalAlign=middle;align=left;outlineConnect=0;shape=mxgraph.veeam.2d.resource_pool;horizontal=1;movable=1;resizable=1;rotatable=1;deletable=1;editable=1;locked=0;connectable=1;" parent="1" vertex="1">
          <mxGeometry x="762.5" y="388.8300000000001" width="15" height="13.07" as="geometry" />
        </mxCell>
        <mxCell id="AFp-_R_-GhDzbqFiinib-10" value="Comment&lt;br&gt;&amp;nbsp;(actions)" style="shadow=0;dashed=0;html=1;strokeColor=none;fillColor=#4495D1;labelPosition=right;verticalLabelPosition=middle;verticalAlign=middle;align=left;outlineConnect=0;shape=mxgraph.veeam.2d.resource_pool;horizontal=1;movable=1;resizable=1;rotatable=1;deletable=1;editable=1;locked=0;connectable=1;" parent="1" vertex="1">
          <mxGeometry x="763.5" y="496.8300000000001" width="15" height="13.07" as="geometry" />
        </mxCell>
        <mxCell id="AFp-_R_-GhDzbqFiinib-15" value="&lt;font style=&quot;font-size: 10px;&quot;&gt;/update-password&lt;/font&gt;" style="rounded=1;whiteSpace=wrap;html=1;movable=1;resizable=1;rotatable=1;deletable=1;editable=1;locked=0;connectable=1;" parent="1" vertex="1">
          <mxGeometry x="191.5" y="440.68" width="80" height="30" as="geometry" />
        </mxCell>
        <mxCell id="AFp-_R_-GhDzbqFiinib-16" value="" style="sketch=0;pointerEvents=1;shadow=0;dashed=0;html=1;strokeColor=#ae4132;labelPosition=center;verticalLabelPosition=bottom;verticalAlign=top;outlineConnect=0;align=center;shape=mxgraph.office.security.lock_protected;fillColor=#fad9d5;movable=1;resizable=1;rotatable=1;deletable=1;editable=1;locked=0;connectable=1;" parent="1" vertex="1">
          <mxGeometry x="271.5" y="450.68" width="10" height="12" as="geometry" />
        </mxCell>
        <mxCell id="AFp-_R_-GhDzbqFiinib-17" value="" style="shadow=0;dashed=0;html=1;strokeColor=#d6b656;fillColor=#fff2cc;labelPosition=center;verticalLabelPosition=bottom;verticalAlign=top;align=center;outlineConnect=0;shape=mxgraph.veeam.2d.resource_pool;gradientColor=#ffd966;movable=1;resizable=1;rotatable=1;deletable=1;editable=1;locked=0;connectable=1;" parent="1" vertex="1">
          <mxGeometry x="181" y="451.32" width="10" height="8.71" as="geometry" />
        </mxCell>
        <mxCell id="AFp-_R_-GhDzbqFiinib-20" value="" style="sketch=0;pointerEvents=1;shadow=0;dashed=0;html=1;strokeColor=#ae4132;labelPosition=center;verticalLabelPosition=bottom;verticalAlign=top;outlineConnect=0;align=center;shape=mxgraph.office.security.lock_protected;fillColor=#fad9d5;movable=1;resizable=1;rotatable=1;deletable=1;editable=1;locked=0;connectable=1;" parent="1" vertex="1">
          <mxGeometry x="272.5" y="483.68" width="10" height="12" as="geometry" />
        </mxCell>
        <mxCell id="AFp-_R_-GhDzbqFiinib-18" value="&lt;p&gt;&lt;font style=&quot;font-size: 8px;&quot;&gt;&lt;font style=&quot;&quot;&gt;/subscribe-to-new-posts/:&lt;/font&gt;&amp;nbsp;interval&lt;/font&gt;&lt;/p&gt;" style="rounded=1;whiteSpace=wrap;html=1;movable=1;resizable=1;rotatable=1;deletable=1;editable=1;locked=0;connectable=1;" parent="1" vertex="1">
          <mxGeometry x="193.45" y="476.2" width="80" height="30" as="geometry" />
        </mxCell>
        <mxCell id="AFp-_R_-GhDzbqFiinib-19" value="" style="shadow=0;dashed=0;html=1;strokeColor=#82b366;fillColor=#d5e8d4;labelPosition=center;verticalLabelPosition=bottom;verticalAlign=top;align=center;outlineConnect=0;shape=mxgraph.veeam.2d.resource_pool;gradientColor=#97d077;movable=1;resizable=1;rotatable=1;deletable=1;editable=1;locked=0;connectable=1;" parent="1" vertex="1">
          <mxGeometry x="183.45" y="486.84999999999997" width="10" height="8.71" as="geometry" />
        </mxCell>
        <mxCell id="AFp-_R_-GhDzbqFiinib-21" value="Cookies" style="shadow=0;dashed=0;html=1;strokeColor=none;fillColor=#4495D1;labelPosition=right;verticalLabelPosition=middle;verticalAlign=middle;align=left;outlineConnect=0;shape=mxgraph.veeam.2d.resource_pool;horizontal=1;" parent="1" vertex="1">
          <mxGeometry x="46.50000000000001" y="143.61000000000007" width="15" height="13.07" as="geometry" />
        </mxCell>
        <mxCell id="AFp-_R_-GhDzbqFiinib-24" value="Guard" style="shadow=0;dashed=0;html=1;strokeColor=none;fillColor=#4495D1;labelPosition=right;verticalLabelPosition=middle;verticalAlign=middle;align=left;outlineConnect=0;shape=mxgraph.veeam.2d.resource_pool;horizontal=1;" parent="1" vertex="1">
          <mxGeometry x="47.11000000000001" y="164.29000000000002" width="15" height="13.07" as="geometry" />
        </mxCell>
        <mxCell id="AFp-_R_-GhDzbqFiinib-28" value="" style="endArrow=classic;startArrow=classic;html=1;rounded=0;exitX=0;exitY=0.5;exitDx=0;exitDy=0;entryX=1;entryY=1;entryDx=0;entryDy=0;" parent="1" source="ADhO0i4H8DHNeuuw_Dwu-5" target="ADhO0i4H8DHNeuuw_Dwu-181" edge="1">
          <mxGeometry width="50" height="50" relative="1" as="geometry">
            <mxPoint x="489" y="-120.06" as="sourcePoint" />
            <mxPoint x="324" y="143.94" as="targetPoint" />
          </mxGeometry>
        </mxCell>
        <mxCell id="AFp-_R_-GhDzbqFiinib-27" value="TCP" style="rounded=0;whiteSpace=wrap;html=1;" parent="1" vertex="1">
          <mxGeometry x="375" y="204.89999999999992" width="52" height="28.93" as="geometry" />
        </mxCell>
        <mxCell id="AFp-_R_-GhDzbqFiinib-30" value="" style="endArrow=classic;startArrow=classic;html=1;rounded=0;entryX=0;entryY=1;entryDx=0;entryDy=0;" parent="1" target="ADhO0i4H8DHNeuuw_Dwu-181" edge="1">
          <mxGeometry width="50" height="50" relative="1" as="geometry">
            <mxPoint x="137" y="253.94" as="sourcePoint" />
            <mxPoint x="203" y="132.94" as="targetPoint" />
          </mxGeometry>
        </mxCell>
        <mxCell id="AFp-_R_-GhDzbqFiinib-29" value="TCP" style="rounded=0;whiteSpace=wrap;html=1;" parent="1" vertex="1">
          <mxGeometry x="143" y="195.72999999999996" width="52" height="28.93" as="geometry" />
        </mxCell>
        <mxCell id="AFp-_R_-GhDzbqFiinib-39" value="" style="shape=actor;whiteSpace=wrap;html=1;" parent="1" vertex="1">
          <mxGeometry x="410.5" y="65.29000000000002" width="23.5" height="28" as="geometry" />
        </mxCell>
        <mxCell id="AFp-_R_-GhDzbqFiinib-40" value="" style="endArrow=classic;startArrow=classic;html=1;rounded=0;exitX=0;exitY=0.75;exitDx=0;exitDy=0;" parent="1" source="AFp-_R_-GhDzbqFiinib-39" edge="1">
          <mxGeometry width="50" height="50" relative="1" as="geometry">
            <mxPoint x="375.5" y="108" as="sourcePoint" />
            <mxPoint x="324" y="85.94" as="targetPoint" />
          </mxGeometry>
        </mxCell>
        <mxCell id="AFp-_R_-GhDzbqFiinib-42" value="" style="rounded=1;whiteSpace=wrap;html=1;align=left;" parent="1" vertex="1">
          <mxGeometry x="421" y="528.22" width="117.5" height="33" as="geometry" />
        </mxCell>
        <mxCell id="AFp-_R_-GhDzbqFiinib-43" value="Queue handler" style="shadow=0;dashed=0;html=1;strokeColor=none;fillColor=#4495D1;labelPosition=right;verticalLabelPosition=middle;verticalAlign=middle;align=left;outlineConnect=0;shape=mxgraph.veeam.2d.resource_pool;horizontal=1;" parent="1" vertex="1">
          <mxGeometry x="428.5" y="538.1500000000001" width="15" height="13.07" as="geometry" />
        </mxCell>
        <mxCell id="AFp-_R_-GhDzbqFiinib-44" value="" style="rounded=1;whiteSpace=wrap;html=1;align=left;" parent="1" vertex="1">
          <mxGeometry x="368" y="389.94" width="117.5" height="33" as="geometry" />
        </mxCell>
        <mxCell id="AFp-_R_-GhDzbqFiinib-45" value="Subscribe" style="shadow=0;dashed=0;html=1;strokeColor=none;fillColor=#4495D1;labelPosition=right;verticalLabelPosition=middle;verticalAlign=middle;align=left;outlineConnect=0;shape=mxgraph.veeam.2d.resource_pool;horizontal=1;" parent="1" vertex="1">
          <mxGeometry x="375.5" y="399.87000000000006" width="15" height="13.07" as="geometry" />
        </mxCell>
        <mxCell id="ADhO0i4H8DHNeuuw_Dwu-4" value="&amp;nbsp; &amp;nbsp; &amp;nbsp; &amp;nbsp; &amp;nbsp; &amp;nbsp; &amp;nbsp; Users" style="rounded=0;whiteSpace=wrap;html=1;movable=1;resizable=1;rotatable=1;deletable=1;editable=1;locked=0;connectable=1;align=left;" parent="1" vertex="1">
          <mxGeometry x="45" y="255.94030769230767" width="247.49999999999997" height="76.51764553846158" as="geometry" />
        </mxCell>
        <mxCell id="ADhO0i4H8DHNeuuw_Dwu-10" value="" style="sketch=0;html=1;aspect=fixed;strokeColor=none;shadow=0;fillColor=#3B8DF1;verticalAlign=top;labelPosition=center;verticalLabelPosition=bottom;shape=mxgraph.gcp2.gear;movable=1;resizable=1;rotatable=1;deletable=1;editable=1;locked=0;connectable=1;" parent="1" vertex="1">
          <mxGeometry x="55.76086956521739" y="279.19770800000003" width="29.99907692307694" height="29.99907692307694" as="geometry" />
        </mxCell>
        <mxCell id="AFp-_R_-GhDzbqFiinib-13" value="" style="shape=datastore;whiteSpace=wrap;html=1;fillColor=#37BD5F;movable=1;resizable=1;rotatable=1;deletable=1;editable=1;locked=0;connectable=1;" parent="1" vertex="1">
          <mxGeometry x="253.5" y="275.7" width="32" height="37" as="geometry" />
        </mxCell>
        <mxCell id="AFp-_R_-GhDzbqFiinib-14" value="Mongo/Mongoose" style="text;html=1;align=center;verticalAlign=middle;resizable=1;points=[];autosize=1;strokeColor=none;fillColor=none;movable=1;rotatable=1;deletable=1;editable=1;locked=0;connectable=1;" parent="1" vertex="1">
          <mxGeometry x="143.5" y="289.46" width="121" height="33" as="geometry" />
        </mxCell>
        <mxCell id="ADhO0i4H8DHNeuuw_Dwu-6" value="&amp;nbsp; &amp;nbsp; &amp;nbsp; &amp;nbsp; &amp;nbsp; &amp;nbsp; &amp;nbsp;Notifier" style="rounded=0;whiteSpace=wrap;html=1;movable=1;resizable=1;rotatable=1;deletable=1;editable=1;locked=0;connectable=1;align=left;" parent="1" vertex="1">
          <mxGeometry x="368" y="427.30826086956523" width="168" height="56.52173913043479" as="geometry" />
        </mxCell>
        <mxCell id="ADhO0i4H8DHNeuuw_Dwu-11" value="" style="sketch=0;html=1;aspect=fixed;strokeColor=none;shadow=0;fillColor=#3B8DF1;verticalAlign=top;labelPosition=center;verticalLabelPosition=bottom;shape=mxgraph.gcp2.gear" parent="1" vertex="1">
          <mxGeometry x="378" y="440.57" width="30" height="30" as="geometry" />
        </mxCell>
        <mxCell id="AFp-_R_-GhDzbqFiinib-54" value="" style="shape=datastore;whiteSpace=wrap;html=1;fillColor=#37BD5F;movable=1;resizable=1;rotatable=1;deletable=1;editable=1;locked=0;connectable=1;" parent="1" vertex="1">
          <mxGeometry x="511" y="449.94" width="21" height="29.13" as="geometry" />
        </mxCell>
        <mxCell id="AFp-_R_-GhDzbqFiinib-55" value="&lt;font style=&quot;font-size: 8px;&quot;&gt;Mongo/Mongoose&lt;/font&gt;" style="text;html=1;align=center;verticalAlign=middle;resizable=1;points=[];autosize=1;strokeColor=none;fillColor=none;movable=1;rotatable=1;deletable=1;editable=1;locked=0;connectable=1;" parent="1" vertex="1">
          <mxGeometry x="430.5" y="456.83" width="88" height="33" as="geometry" />
        </mxCell>
        <mxCell id="AFp-_R_-GhDzbqFiinib-58" value="" style="endArrow=classic;startArrow=classic;html=1;rounded=0;entryX=-0.027;entryY=0.638;entryDx=0;entryDy=0;entryPerimeter=0;" parent="1" target="AFp-_R_-GhDzbqFiinib-44" edge="1">
          <mxGeometry width="50" height="50" relative="1" as="geometry">
            <mxPoint x="264.5" y="497.74999999999994" as="sourcePoint" />
            <mxPoint x="357" y="451.94" as="targetPoint" />
          </mxGeometry>
        </mxCell>
        <mxCell id="AFp-_R_-GhDzbqFiinib-59" value="RMQ" style="rounded=0;whiteSpace=wrap;html=1;" parent="1" vertex="1">
          <mxGeometry x="300.42" y="431.2899999999999" width="52" height="28.93" as="geometry" />
        </mxCell>
        <mxCell id="AFp-_R_-GhDzbqFiinib-60" value="" style="endArrow=classic;startArrow=classic;html=1;rounded=0;exitX=1;exitY=0.5;exitDx=0;exitDy=0;" parent="1" source="ADhO0i4H8DHNeuuw_Dwu-152" target="ADhO0i4H8DHNeuuw_Dwu-59" edge="1">
          <mxGeometry width="50" height="50" relative="1" as="geometry">
            <mxPoint x="544" y="528.94" as="sourcePoint" />
            <mxPoint x="643" y="451.94" as="targetPoint" />
          </mxGeometry>
        </mxCell>
        <mxCell id="AFp-_R_-GhDzbqFiinib-61" value="RMQ" style="rounded=0;whiteSpace=wrap;html=1;" parent="1" vertex="1">
          <mxGeometry x="563" y="466.2899999999999" width="52" height="28.93" as="geometry" />
        </mxCell>
        <mxCell id="AFp-_R_-GhDzbqFiinib-63" value="" style="shape=actor;whiteSpace=wrap;html=1;" parent="1" vertex="1">
          <mxGeometry x="328.92" y="536.5799999999999" width="23.5" height="28" as="geometry" />
        </mxCell>
        <mxCell id="AFp-_R_-GhDzbqFiinib-64" value="" style="shape=message;html=1;html=1;outlineConnect=0;labelPosition=center;verticalLabelPosition=bottom;align=center;verticalAlign=top;" parent="1" vertex="1">
          <mxGeometry x="404" y="540.8599999999999" width="16" height="11" as="geometry" />
        </mxCell>
        <mxCell id="AFp-_R_-GhDzbqFiinib-65" value="" style="endArrow=classic;html=1;rounded=0;entryX=0.9;entryY=0.5;entryDx=0;entryDy=0;entryPerimeter=0;" parent="1" target="AFp-_R_-GhDzbqFiinib-63" edge="1">
          <mxGeometry width="50" height="50" relative="1" as="geometry">
            <mxPoint x="401" y="550.94" as="sourcePoint" />
            <mxPoint x="770" y="363.94" as="targetPoint" />
          </mxGeometry>
        </mxCell>
      </root>
    </mxGraphModel>
  </diagram>
</mxfile>
